<svg width="36" height="28" viewBox="0 0 36 28" fill="none" xmlns="http://www.w3.org/2000/svg">
<path d="M2 0H34C34.5304 0 35.0392 0.210714 35.4142 0.585786C35.7892 0.96086 36 1.46957 36 2C36 2.53044 35.7892 3.03914 35.4142 3.41422C35.0392 3.78928 34.5304 4 34 4H2C1.46957 4 0.96086 3.78928 0.585786 3.41422C0.210714 3.03914 0 2.53044 0 2C0 1.46957 0.210714 0.96086 0.585786 0.585786C0.96086 0.210714 1.46957 0 2 0ZM2 12H34C34.5304 12 35.0392 12.2107 35.4142 12.5858C35.7892 12.9609 36 13.4696 36 14C36 14.5304 35.7892 15.0391 35.4142 15.4142C35.0392 15.7893 34.5304 16 34 16H2C1.46957 16 0.96086 15.7893 0.585786 15.4142C0.210714 15.0391 0 14.5304 0 14C0 13.4696 0.210714 12.9609 0.585786 12.5858C0.96086 12.2107 1.46957 12 2 12ZM2 24H34C34.5304 24 35.0392 24.2108 35.4142 24.5858C35.7892 24.9608 36 25.4696 36 26C36 26.5304 35.7892 27.0392 35.4142 27.4142C35.0392 27.7892 34.5304 28 34 28H2C1.46957 28 0.96086 27.7892 0.585786 27.4142C0.210714 27.0392 0 26.5304 0 26C0 25.4696 0.210714 24.9608 0.585786 24.5858C0.96086 24.2108 1.46957 24 2 24Z" fill="white"/>
</svg>
