<svg width="18" height="18" viewBox="0 0 18 18" fill="none" xmlns="http://www.w3.org/2000/svg">
<path d="M17.9459 5.28931C17.9309 4.54269 17.7895 3.80401 17.5275 3.10468C17.3015 2.50414 16.9473 1.96012 16.4894 1.51056C16.0399 1.05272 15.4959 0.698461 14.8953 0.47247C14.196 0.210542 13.4573 0.0690935 12.7107 0.05414C11.7507 0.01038 11.4443 0 9 0C6.55573 0 6.24927 0.01038 5.28931 0.05414C4.54269 0.0690935 3.80401 0.210542 3.10468 0.47247C2.50414 0.698461 1.96012 1.05272 1.51056 1.51056C1.05272 1.96012 0.698461 2.50414 0.47247 3.10468C0.210542 3.80401 0.0690935 4.54269 0.05414 5.28931C0.01038 6.24927 0 6.55573 0 9C0 11.4443 0.01038 11.7507 0.05414 12.7107C0.0690935 13.4573 0.210542 14.196 0.47247 14.8953C0.698461 15.4959 1.05272 16.0399 1.51056 16.4894C1.96011 16.9473 2.50413 17.3016 3.10468 17.5275C3.80401 17.7895 4.54269 17.9309 5.28931 17.9459C6.24927 17.9897 6.55573 18 9 18C11.4443 18 11.7507 17.9897 12.7107 17.9459C13.4573 17.9309 14.196 17.7895 14.8953 17.5275C15.4932 17.2963 16.0362 16.9427 16.4894 16.4894C16.9427 16.0362 17.2963 15.4932 17.5275 14.8953C17.7894 14.196 17.9309 13.4573 17.9459 12.7107C17.9896 11.7507 18 11.4443 18 9C18 6.55573 17.9896 6.24927 17.9459 5.28931ZM16.3259 12.6368C16.3192 13.2075 16.2143 13.7728 16.016 14.3079C15.8663 14.6961 15.637 15.0486 15.3428 15.3428C15.0486 15.637 14.6961 15.8663 14.3079 16.016C13.7728 16.2143 13.2075 16.3192 12.6368 16.3259C11.6879 16.3692 11.4033 16.3784 9 16.3784C6.59674 16.3784 6.31213 16.3692 5.36322 16.3259C4.79253 16.3192 4.22724 16.2143 3.69208 16.016C3.30115 15.8718 2.94753 15.6417 2.65723 15.3428C2.3583 15.0525 2.12825 14.6989 1.984 14.3079C1.78566 13.7728 1.68081 13.2075 1.67406 12.6368C1.6308 11.6877 1.62164 11.4031 1.62164 9C1.62164 6.59686 1.6308 6.31226 1.67407 5.36322C1.68083 4.79253 1.78567 4.22724 1.984 3.69208C2.12824 3.30115 2.35829 2.94753 2.65722 2.65723C2.94752 2.3583 3.30115 2.12825 3.69208 1.984C4.22724 1.78566 4.79253 1.68082 5.36322 1.67406C6.31226 1.6308 6.59686 1.62164 9 1.62164C11.4031 1.62164 11.6877 1.6308 12.6368 1.67407C13.2075 1.68083 13.7728 1.78567 14.3079 1.98401C14.6989 2.12825 15.0525 2.3583 15.3428 2.65723C15.6417 2.94753 15.8718 3.30115 16.016 3.69208C16.2143 4.22724 16.3192 4.79253 16.3259 5.36322C16.3692 6.31222 16.3784 6.59692 16.3784 9C16.3784 11.4031 16.3692 11.6877 16.3259 12.6368ZM9 4.37836C8.08593 4.37836 7.19238 4.64941 6.43235 5.15725C5.67233 5.66508 5.07996 6.38688 4.73016 7.23137C4.38036 8.07587 4.28884 9.00513 4.46716 9.90164C4.64549 10.7981 5.08566 11.6216 5.73201 12.268C6.37836 12.9143 7.20185 13.3545 8.09836 13.5328C8.99487 13.7112 9.92413 13.6196 10.7686 13.2698C11.6131 12.92 12.3349 12.3277 12.8428 11.5676C13.3506 10.8076 13.6216 9.91407 13.6216 9C13.6216 7.77427 13.1347 6.59874 12.268 5.73202C11.4013 4.8653 10.2257 4.37837 9 4.37836ZM9 12C8.40666 12 7.82664 11.8241 7.33329 11.4944C6.83994 11.1648 6.45542 10.6962 6.22836 10.1481C6.0013 9.59987 5.94189 8.99667 6.05764 8.41473C6.1734 7.83279 6.45912 7.29824 6.87868 6.87868C7.29824 6.45912 7.83279 6.1734 8.41473 6.05764C8.99667 5.94189 9.59987 6.0013 10.1481 6.22836C10.6962 6.45542 11.1648 6.83994 11.4944 7.33329C11.8241 7.82664 12 8.40666 12 9C12 9.79565 11.6839 10.5587 11.1213 11.1213C10.5587 11.6839 9.79565 12 9 12ZM14.8842 4.1958C14.8842 4.4094 14.8209 4.61821 14.7022 4.79582C14.5835 4.97342 14.4149 5.11185 14.2175 5.19359C14.0202 5.27533 13.803 5.29672 13.5935 5.25505C13.384 5.21338 13.1916 5.11052 13.0405 4.95948C12.8895 4.80843 12.7866 4.616 12.745 4.4065C12.7033 4.197 12.7247 3.97985 12.8064 3.7825C12.8882 3.58516 13.0266 3.41648 13.2042 3.29781C13.3818 3.17914 13.5906 3.1158 13.8042 3.1158C14.0907 3.1158 14.3654 3.22959 14.5679 3.43212C14.7704 3.63466 14.8842 3.90937 14.8842 4.1958Z" fill="black"/>
</svg>
