<svg width="20" height="16" viewBox="0 0 20 16" fill="none" xmlns="http://www.w3.org/2000/svg">
<path d="M17.316 4.246C17.324 4.408 17.327 4.572 17.327 4.734C17.327 9.724 13.53 15.476 6.58705 15.476C4.45405 15.476 2.47105 14.851 0.800049 13.779C1.09605 13.814 1.39605 13.832 1.70005 13.832C3.47005 13.832 5.09705 13.228 6.38805 12.217C4.73705 12.186 3.34205 11.096 2.86205 9.596C3.09205 9.639 3.32905 9.662 3.57205 9.662C3.91705 9.662 4.25105 9.617 4.56705 9.531C2.84005 9.183 1.53905 7.658 1.53905 5.828C1.53905 5.812 1.53905 5.797 1.53905 5.781C2.04805 6.064 2.63105 6.234 3.24905 6.254C2.23605 5.576 1.56905 4.422 1.56905 3.111C1.56905 2.42 1.75505 1.771 2.08105 1.213C3.94205 3.498 6.72505 5 9.86205 5.158C9.79805 4.881 9.76505 4.594 9.76505 4.297C9.76505 2.213 11.454 0.524 13.539 0.524C14.625 0.524 15.606 0.981 16.295 1.715C17.154 1.545 17.962 1.231 18.692 0.799C18.41 1.68 17.811 2.42 17.032 2.887C17.796 2.795 18.5221 2.594 19.2001 2.293C18.694 3.051 18.0541 3.715 17.316 4.246Z" fill="black"/>
</svg>
